<svg width="12" height="67" viewBox="0 0 12 67" fill="none" xmlns="http://www.w3.org/2000/svg">
<path d="M10 63.001C9.99998 65.2101 8.20912 67.001 6 67.001C3.79088 67.001 2.00002 65.2101 2 63.001V16.6211C3.10282 17.4842 4.49056 18 6 18C7.50914 18 8.89682 17.484 10 16.6211V63.001Z" fill="#1B1B1B"/>
<path d="M6.5 5.02148C9.57973 5.2756 12 7.85469 12 11C12 14.3137 9.31371 17 6 17C2.86802 17 0.298025 14.6001 0.0253906 11.5391C0.00973274 11.4449 4.92736e-09 11.3486 0 11.25V1.75C0 0.783502 0.783502 0 1.75 0C2.7165 0 3.5 0.783502 3.5 1.75V2C3.5 3.65685 4.84315 5 6.5 5V5.02148ZM6.2627 5.00586C6.17563 5.00161 6.08804 5 6 5C6.08802 5 6.1756 5.00211 6.2627 5.00586Z" fill="#1B1B1B"/>
</svg>
