<svg width="49" height="33" viewBox="0 0 49 33" fill="none" xmlns="http://www.w3.org/2000/svg">
<path d="M46.342 16.6472C47.4228 18.5491 46.7752 20.9665 44.8884 22.0734L33.4824 28.7651C33.4819 28.7654 33.4812 28.7652 33.481 28.7646V28.7646C33.4807 28.7641 33.48 28.7639 33.4795 28.7642L26.9638 32.5875C26.5034 32.8576 25.9793 33 25.4456 33H9.16967C7.73073 33 6.40267 32.2271 5.69183 30.976L2.59239 25.5209C1.51174 23.6189 2.15944 21.2016 4.04629 20.0947L33.7392 2.6761C35.6633 1.54738 38.1389 2.21063 39.2409 4.15012L46.342 16.6472ZM4.55212 20.957C3.13695 21.7871 2.65117 23.6002 3.46169 25.0267L6.56134 30.482C7.09448 31.4203 8.09051 32 9.16971 32H25.1743C25.7079 32 26.2319 31.8577 26.6922 31.5876L32.9863 27.8955L22.9209 10.1816L4.55212 20.957ZM23.7832 9.67578L33.8496 27.3896L44.3824 21.211C45.7976 20.3808 46.2833 18.5678 45.4728 17.1413L38.3718 4.64446C37.5453 3.18989 35.6887 2.69243 34.2456 3.53888L23.7832 9.67578Z" fill="#1B1B1B"/>
<path d="M46.5 32C46.7761 32 47 32.2239 47 32.5V32.5C47 32.7761 46.7761 33 46.5 33H9.5C9.22386 33 9 32.7761 9 32.5V32.5C9 32.2239 9.22386 32 9.5 32H46.5Z" fill="#1B1B1B"/>
</svg>
