<svg width="49" height="33" viewBox="0 0 49 33" fill="none" xmlns="http://www.w3.org/2000/svg">
<path d="M45.4727 17.1412C46.2833 18.5677 45.7975 20.3808 44.3822 21.211L33.8486 27.3896L23.7832 9.67578L34.2456 3.53888C35.6887 2.69243 37.5453 3.18989 38.3718 4.64446L45.4727 17.1412Z" fill="#1B1B1B"/>
<path d="M46.8292 17.5046C47.6398 18.9311 47.1541 20.7441 45.7389 21.5743L33.4805 28.7656L22.4268 9.3125L34.6137 2.16313C36.0568 1.31657 37.9135 1.814 38.74 3.26863L46.8292 17.5046ZM23.7832 9.67578L33.8486 27.3896L44.3822 21.211C45.7975 20.3808 46.2833 18.5677 45.4727 17.1412L38.3718 4.64446C37.5453 3.18989 35.6887 2.69243 34.2456 3.53888L23.7832 9.67578Z" fill="#1B1B1B"/>
<path d="M34.3428 28.2588L26.9647 32.5875C26.5044 32.8576 25.9803 33 25.4466 33H9.16967C7.73073 33 6.40267 32.2271 5.69183 30.976L2.59234 25.5208C1.51171 23.6188 2.15937 21.2016 4.04616 20.0947L23.2891 8.80566L34.3428 28.2588ZM4.55212 20.957C3.13695 21.7871 2.65117 23.6002 3.46169 25.0267L6.56134 30.482C7.09448 31.4203 8.09051 32 9.16971 32H25.1752C25.7089 32 26.2329 31.8576 26.6932 31.5876L32.9863 27.8955L22.9209 10.1816L4.55212 20.957Z" fill="#1B1B1B"/>
<path d="M46.4346 32C46.7107 32 46.9346 32.2239 46.9346 32.5V32.5C46.9346 32.7761 46.7107 33 46.4346 33H9V32H46.4346Z" fill="#1B1B1B"/>
</svg>
