<svg width="12" height="69" viewBox="0 0 12 69" fill="none" xmlns="http://www.w3.org/2000/svg">
<path d="M10 65C10 67.2091 8.20908 68.9999 6 69C3.791 68.9998 2 67.209 2 65V18.2646H10V65ZM11.29 7.18457C11.7436 7.86497 11.9 8.70175 11.7227 9.5L10 17.25H2L0.278322 9.5C0.100921 8.70169 0.257321 7.86501 0.710939 7.18457L5.5 0V8.38477C5.20152 8.55778 5 8.88017 5 9.25C5 9.80214 5.44792 10.2498 6 10.25C6.55215 10.2498 7 9.80218 7 9.25C7 8.87982 6.79896 8.55668 6.5 8.38379V0L11.29 7.18457Z" fill="#1B1B1B"/>
</svg>
