<svg width="12" height="69" viewBox="0 0 12 69" fill="none" xmlns="http://www.w3.org/2000/svg">
<path d="M11.0841 7.93457C11.5377 8.61501 11.6941 9.45168 11.5167 10.25L9.79406 18V65C9.79406 67.2091 8.0032 69 5.79406 69C3.65408 68.9999 1.90617 67.3194 1.79894 65.2061L1.79406 65V18L0.0714014 10.25C-0.105986 9.45172 0.0504342 8.61499 0.504019 7.93457L5.79406 0L11.0841 7.93457ZM2.79406 65C2.79406 66.6568 4.13726 67.9999 5.79406 68C7.45091 68 8.79406 66.6569 8.79406 65V18H2.79406V65ZM6.29406 9.13477C6.59277 9.30772 6.79406 9.63 6.79406 10C6.79406 10.5523 6.34634 11 5.79406 11C5.24183 10.9999 4.79406 10.5522 4.79406 10C4.79406 9.63007 4.99544 9.30774 5.29406 9.13477V2.55176L1.33605 8.48926C1.03367 8.94287 0.92971 9.50103 1.04796 10.0332L2.59679 17H8.99132L10.5402 10.0332C10.6584 9.50099 10.5545 8.94289 10.2521 8.48926L6.29406 2.55176V9.13477Z" fill="#1B1B1B"/>
</svg>
