<svg width="19" height="69" viewBox="0 0 19 69" fill="none" xmlns="http://www.w3.org/2000/svg">
<path d="M6.88086 1.5363C8.02578 -0.512102 10.9742 -0.512099 12.1191 1.5363L18.3643 12.714C18.7808 13.4594 19 14.2987 19 15.1525V63.8508C18.9998 66.612 16.7613 68.8508 14 68.8508H5C2.23868 68.8508 0.000161526 66.612 0 63.8508V15.1525C3.87797e-05 14.2987 0.219246 13.4594 0.635742 12.714L6.88086 1.5363ZM1 56.8498V63.9025C1.00016 66.1115 2.79096 67.9025 5 67.9025H14C16.209 67.9025 17.9998 66.1115 18 63.9025V56.8498H1ZM11.2383 1.95818C10.4715 0.609799 8.52855 0.6098 7.76172 1.95818L1 13.8508V55.8498H18V13.8508L11.2383 1.95818Z" fill="#1B1B1B"/>
</svg>
