<svg width="19" height="69" viewBox="0 0 19 69" fill="none" xmlns="http://www.w3.org/2000/svg">
<path d="M19 64C19 66.7614 16.7614 69 14 69H5C2.23858 69 0 66.7614 0 64V57H19V64ZM6.88086 1.68652C8.02578 -0.361879 10.9742 -0.361876 12.1191 1.68652L18.3643 12.8643C18.5652 13.2238 18.7197 13.6055 18.8262 14L18.9014 14.3203C18.9663 14.6425 19 14.9715 19 15.3027V56H0V15.3027C1.14645e-05 14.9715 0.0337223 14.6425 0.0986328 14.3203L0.173828 14C0.280327 13.6055 0.434825 13.2239 0.635742 12.8643L6.88086 1.68652ZM11.2461 2.17383C10.4826 0.808745 8.51709 0.809383 7.75391 2.1748L7.75293 2.17383L1.70508 13H17.2949L11.2461 2.17383Z" fill="#1B1B1B"/>
</svg>
