<svg width="44" height="70" viewBox="0 0 44 70" fill="none" xmlns="http://www.w3.org/2000/svg">
<path d="M14 10.5C14 6.35786 17.3579 3 21.5 3V3C25.6421 3 29 6.35786 29 10.5V14C29 15.6569 27.6569 17 26 17H17C15.3431 17 14 15.6569 14 14V10.5Z" fill="#1B1B1B"/>
<path d="M34 9.78725L42.6933 7.51294M34 9.78725L42.6933 7.51294" stroke="#1B1B1B" stroke-linecap="round"/>
<path d="M34 11.4184L42.6933 13.6927M34 11.4184L42.6933 13.6927" stroke="#1B1B1B" stroke-linecap="round"/>
<path d="M33.1546 13.1375L41.848 20.2056M33.1546 13.1375L41.848 20.2056" stroke="#1B1B1B" stroke-linecap="round"/>
<path d="M33.152 8.06816L41.8454 0.999994M33.152 8.06816L41.8454 0.999994" stroke="#1B1B1B" stroke-linecap="round"/>
<path d="M28 19C36.2843 19 43 25.7157 43 34V63C43 66.866 39.866 70 36 70H7C3.13401 70 1.8523e-07 66.866 0 63V34C0 25.7157 6.71573 19 15 19H28ZM21.5 31C14.0442 31 8 37.0442 8 44.5C8 51.9558 14.0442 58 21.5 58C28.9558 58 35 51.9558 35 44.5C35 37.0442 28.9558 31 21.5 31Z" fill="#1B1B1B"/>
</svg>
