<svg width="12" height="66" viewBox="0 0 12 66" fill="none" xmlns="http://www.w3.org/2000/svg">
<path d="M9.5 61.0703C9.4998 63.0031 7.93287 64.5703 6 64.5703C4.06713 64.5703 2.5002 63.0031 2.5 61.0703V15.3262C3.51543 16.2128 4.7632 16.5693 6 16.5693C7.23658 16.5693 8.48449 16.2128 9.5 15.3262V61.0703Z" stroke="black"/>
<mask id="path-2-inside-1_3363_510" fill="white">
<path d="M6.5 5.02148C9.57973 5.2756 12 7.85469 12 11C12 14.3137 9.31371 17 6 17C2.86802 17 0.298025 14.6001 0.0253906 11.5391C0.00973274 11.4449 4.92736e-09 11.3486 0 11.25V1.75C0 0.783502 0.783502 0 1.75 0C2.7165 0 3.5 0.783502 3.5 1.75V2C3.5 3.65685 4.84315 5 6.5 5V5.02148ZM6.2627 5.00586C6.17563 5.00161 6.08804 5 6 5C6.08802 5 6.1756 5.00211 6.2627 5.00586Z"/>
</mask>
<path d="M6.5 5.02148H5.5V5.94237L6.41777 6.0181L6.5 5.02148ZM0.0253906 11.5391L1.02145 11.4503L1.01807 11.4125L1.01183 11.3749L0.0253906 11.5391ZM0 11.25L-1 11.25L-1 11.25L0 11.25ZM3.5 1.75L4.5 1.75L4.5 1.75L3.5 1.75ZM6.5 5H7.5V4H6.5V5ZM6.2627 5.00586L6.21965 6.00493L6.31147 4.00705L6.2627 5.00586ZM6.5 5.02148L6.41777 6.0181C8.98338 6.22979 11 8.37963 11 11H12H13C13 7.32976 10.1761 4.3214 6.58223 4.02487L6.5 5.02148ZM12 11H11C11 13.7614 8.76142 16 6 16V17V18C9.86599 18 13 14.866 13 11H12ZM6 17V16C3.3909 16 1.24858 14.0005 1.02145 11.4503L0.0253906 11.5391L-0.970667 11.6278C-0.65253 15.1997 2.34514 18 6 18V17ZM0.0253906 11.5391L1.01183 11.3749C1.00325 11.3234 1 11.2829 1 11.25L0 11.25L-1 11.25C-1 11.4143 -0.983784 11.5665 -0.961051 11.7032L0.0253906 11.5391ZM0 11.25H1V1.75H0H-1V11.25H0ZM0 1.75H1C1 1.33579 1.33579 1 1.75 1V0V-1C0.231217 -1 -1 0.231217 -1 1.75H0ZM1.75 0V1C2.16421 1 2.5 1.33579 2.5 1.75L3.5 1.75L4.5 1.75C4.5 0.231217 3.26878 -1 1.75 -1V0ZM3.5 1.75H2.5V2H3.5H4.5V1.75H3.5ZM3.5 2H2.5C2.5 4.20914 4.29086 6 6.5 6V5V4C5.39543 4 4.5 3.10457 4.5 2H3.5ZM6.5 5H5.5V5.02148H6.5H7.5V5H6.5ZM6.2627 5.00586L6.31147 4.00705C6.20431 4.00182 6.09993 4 6 4V5V6C6.07614 6 6.14694 6.0014 6.21392 6.00467L6.2627 5.00586ZM6 5V6C6.0721 6 6.14523 6.00173 6.21965 6.00493L6.2627 5.00586L6.30574 4.00679C6.20596 4.00249 6.10395 4 6 4V5Z" fill="#1B1B1B" mask="url(#path-2-inside-1_3363_510)"/>
</svg>
