<svg width="19" height="69" viewBox="0 0 19 69" fill="none" xmlns="http://www.w3.org/2000/svg">
<path d="M6.88086 1.53613C8.02578 -0.512271 10.9742 -0.512268 12.1191 1.53613L18.3643 12.7139C18.7808 13.4592 19 14.2985 19 15.1523V63.8506C18.9998 66.6119 16.7613 68.8506 14 68.8506H5C2.23868 68.8506 0.000161526 66.6119 0 63.8506V15.1523C3.87797e-05 14.2985 0.219246 13.4592 0.635742 12.7139L6.88086 1.53613ZM1 56.8496V63.9023C1.00016 66.1113 2.79096 67.9023 5 67.9023H14C16.209 67.9023 17.9998 66.1113 18 63.9023V56.8496H1ZM1 55.8496H18V14.7988H1V55.8496ZM11.2383 1.95801C10.4715 0.60963 8.52855 0.609631 7.76172 1.95801L1 13.8506H18L11.2383 1.95801Z" fill="#1B1B1B"/>
</svg>
