<svg width="44" height="70" viewBox="0 0 44 70" fill="none" xmlns="http://www.w3.org/2000/svg">
<path d="M21.5 3.5C25.366 3.5 28.5 6.63401 28.5 10.5V14C28.5 15.3807 27.3807 16.5 26 16.5H17C15.6193 16.5 14.5 15.3807 14.5 14V10.5C14.5 6.63401 17.634 3.5 21.5 3.5Z" stroke="black"/>
<path d="M34 9.78725L42.6933 7.51294M34 9.78725L42.6933 7.51294" stroke="#1B1B1B" stroke-linecap="round"/>
<path d="M34 11.4184L42.6933 13.6927M34 11.4184L42.6933 13.6927" stroke="#1B1B1B" stroke-linecap="round"/>
<path d="M33.1546 13.1375L41.848 20.2056M33.1546 13.1375L41.848 20.2056" stroke="#1B1B1B" stroke-linecap="round"/>
<path d="M33.152 8.06816L41.8454 0.999994M33.152 8.06816L41.8454 0.999994" stroke="#1B1B1B" stroke-linecap="round"/>
<mask id="path-6-inside-1_3363_508" fill="white">
<path d="M28 19C36.2843 19 43 25.7157 43 34V63C43 66.866 39.866 70 36 70H7C3.13401 70 1.8523e-07 66.866 0 63V34C0 25.7157 6.71573 19 15 19H28ZM21.5 31C14.0442 31 8 37.0442 8 44.5C8 51.9558 14.0442 58 21.5 58C28.9558 58 35 51.9558 35 44.5C35 37.0442 28.9558 31 21.5 31Z"/>
</mask>
<path d="M43 34L44 34V34L43 34ZM36 70L36 71H36L36 70ZM7 70L7 71H7V70ZM0 63L-1 63L-1 63L0 63ZM28 19V20C35.732 20 42 26.268 42 34L43 34L44 34C44 25.1634 36.8366 18 28 18V19ZM43 34H42V63H43H44V34H43ZM43 63H42C42 66.3137 39.3137 69 36 69L36 70L36 71C40.4183 71 44 67.4183 44 63H43ZM36 70V69H7V70V71H36V70ZM7 70L7 69C3.68629 69 1 66.3137 1 63L0 63L-1 63C-1 67.4183 2.58172 71 7 71L7 70ZM0 63H1V34H0H-1V63H0ZM0 34H1C1 26.268 7.26801 20 15 20V19V18C6.16344 18 -1 25.1634 -1 34H0ZM15 19V20H28V19V18H15V19ZM21.5 31V30C13.4919 30 7 36.4919 7 44.5H8H9C9 37.5964 14.5964 32 21.5 32V31ZM8 44.5H7C7 52.5081 13.4919 59 21.5 59V58V57C14.5964 57 9 51.4036 9 44.5H8ZM21.5 58V59C29.5081 59 36 52.5081 36 44.5H35H34C34 51.4036 28.4036 57 21.5 57V58ZM35 44.5H36C36 36.4919 29.5081 30 21.5 30V31V32C28.4036 32 34 37.5964 34 44.5H35Z" fill="black" mask="url(#path-6-inside-1_3363_508)"/>
</svg>
